{"glyphs":{"0":{"ha":1451,"x_min":83,"x_max":1368,"o":"m 83 686 q 107 803 83 749 q 172 898 131 857 q 267 963 213 939 q 385 986 322 986 l 1068 986 q 1185 963 1131 986 q 1280 898 1239 939 q 1344 803 1321 857 q 1368 686 1368 749 l 1368 288 q 1344 170 1368 225 q 1280 74 1321 115 q 1185 10 1239 33 q 1068 -14 1131 -14 l 385 -14 q 267 10 322 -14 q 172 74 213 33 q 107 170 131 115 q 83 288 83 225 l 83 686 m 1029 181 q 1109 201 1082 181 q 1147 256 1136 221 q 1159 337 1158 290 q 1160 436 1160 383 l 1160 535 q 1159 635 1160 588 q 1147 717 1158 682 q 1109 772 1136 751 q 1029 792 1082 792 l 422 792 q 342 772 369 792 q 304 717 315 751 q 292 635 293 682 q 292 535 292 588 l 292 436 q 292 337 292 383 q 304 256 293 290 q 342 201 315 221 q 422 181 369 181 l 1029 181 z "},"1":{"ha":865,"x_min":83,"x_max":782,"o":"m 83 194 l 329 194 l 329 778 l 83 778 l 83 972 l 538 972 l 538 194 l 782 194 l 782 0 l 83 0 l 83 194 z "},"2":{"ha":1331,"x_min":83,"x_max":1247,"o":"m 1024 986 q 1110 965 1069 986 q 1182 903 1151 943 q 1230 803 1213 863 q 1247 667 1247 743 q 1230 531 1247 590 q 1182 430 1213 471 q 1110 368 1151 389 q 1024 347 1069 347 l 406 347 q 342 342 365 347 q 308 322 319 338 q 294 277 297 307 q 292 197 292 247 l 292 194 l 1247 194 l 1247 0 l 83 0 l 83 289 q 147 474 83 407 q 326 542 211 542 l 882 542 q 947 545 918 542 q 996 561 975 549 q 1028 599 1017 574 q 1039 667 1039 624 q 1028 735 1039 710 q 996 772 1017 760 q 947 788 975 785 q 882 792 918 792 l 461 792 q 390 792 421 792 q 336 787 358 792 q 303 767 314 782 q 292 724 292 753 l 83 724 q 101 833 83 785 q 150 916 119 882 q 222 968 181 950 q 308 986 263 986 l 1024 986 z "},"3":{"ha":1367,"x_min":83,"x_max":1283,"o":"m 292 250 q 305 206 292 221 q 341 186 318 192 q 395 181 364 181 q 461 181 426 181 l 906 181 q 972 183 942 181 q 1026 197 1003 186 q 1062 228 1049 207 q 1075 286 1075 249 q 1062 344 1075 324 q 1026 376 1049 365 q 972 388 1003 386 q 906 390 942 390 l 535 390 l 535 585 l 869 585 q 936 587 906 585 q 990 599 967 589 q 1027 631 1014 610 q 1040 689 1040 651 q 1027 747 1040 726 q 990 778 1014 768 q 936 790 967 788 q 869 792 906 792 l 461 792 q 395 792 426 792 q 341 787 364 792 q 305 767 318 782 q 292 724 292 753 l 83 724 q 101 833 83 785 q 149 916 118 882 q 220 968 179 950 q 308 986 261 986 l 1024 986 q 1110 968 1069 986 q 1182 916 1151 950 q 1230 833 1213 882 q 1247 724 1247 785 q 1215 583 1247 639 q 1129 496 1182 526 q 1240 408 1196 468 q 1283 250 1283 349 q 1266 140 1283 189 q 1218 56 1249 90 q 1147 4 1188 22 q 1060 -14 1106 -14 l 308 -14 q 220 4 261 -14 q 149 56 179 22 q 101 140 118 90 q 83 250 83 189 l 292 250 z "},"4":{"ha":1360,"x_min":14,"x_max":1346,"o":"m 1114 0 l 906 0 l 906 226 l 14 226 l 14 435 l 17 435 l 906 972 l 1114 972 l 1114 435 l 1346 435 l 1346 226 l 1114 226 l 1114 0 m 383 435 l 906 435 l 906 751 l 383 435 z "},"5":{"ha":1332,"x_min":85,"x_max":1249,"o":"m 1221 710 l 1026 710 l 1026 778 l 292 778 l 292 590 l 1025 590 q 1112 572 1071 590 q 1183 515 1153 553 q 1231 422 1214 478 q 1249 289 1249 365 q 1231 156 1249 213 q 1183 61 1214 99 q 1112 5 1153 24 q 1025 -14 1071 -14 l 310 -14 q 223 4 264 -14 q 151 56 182 22 q 103 139 121 90 q 85 249 85 188 l 293 249 q 304 205 293 219 q 338 185 315 190 q 391 181 360 181 q 463 181 422 181 l 883 181 q 948 182 919 181 q 997 193 976 183 q 1029 225 1018 203 q 1040 289 1040 247 q 1029 353 1040 331 q 997 384 1018 375 q 948 394 976 393 q 883 396 919 396 l 85 396 l 85 972 l 1221 972 l 1221 710 z "},"6":{"ha":1331,"x_min":83,"x_max":1247,"o":"m 1024 590 q 1110 572 1069 590 q 1182 515 1151 553 q 1230 421 1213 478 q 1247 288 1247 364 q 1230 154 1247 211 q 1182 60 1213 97 q 1110 4 1151 22 q 1024 -14 1069 -14 l 308 -14 q 222 4 263 -14 q 150 60 181 22 q 101 154 119 97 q 83 288 83 211 l 83 724 q 101 833 83 785 q 150 916 119 882 q 222 968 181 950 q 308 986 263 986 l 1006 986 q 1092 968 1051 986 q 1164 916 1133 950 q 1212 833 1194 882 q 1229 724 1229 785 l 1229 710 l 1021 710 l 1021 724 q 1010 765 1021 751 q 977 785 999 779 q 924 792 956 792 q 851 792 892 792 l 461 792 q 390 792 421 792 q 336 785 358 792 q 303 765 314 779 q 292 724 292 751 l 292 572 q 356 586 324 582 q 419 590 388 590 l 1024 590 m 868 181 q 935 181 904 181 q 989 190 965 181 q 1026 221 1013 199 q 1039 288 1039 243 q 1026 355 1039 332 q 989 387 1013 378 q 935 396 965 396 q 868 396 904 396 l 461 396 q 395 396 426 396 q 341 387 364 396 q 305 355 318 378 q 292 288 292 332 q 305 221 292 243 q 341 190 318 199 q 395 181 364 181 q 461 181 426 181 l 868 181 z "},"7":{"ha":1129,"x_min":14,"x_max":1114,"o":"m 1114 972 l 1114 776 l 396 0 l 111 0 l 831 778 l 222 778 l 222 710 l 14 710 l 14 972 l 1114 972 z "},"8":{"ha":1403,"x_min":83,"x_max":1319,"o":"m 1060 986 q 1147 967 1106 986 q 1218 910 1188 947 q 1266 822 1249 874 q 1283 703 1283 769 q 1258 574 1283 626 q 1188 494 1232 522 q 1283 408 1246 468 q 1319 257 1319 347 q 1302 140 1319 190 q 1254 55 1285 89 q 1183 3 1224 21 q 1094 -14 1142 -14 l 308 -14 q 220 3 261 -14 q 149 55 179 21 q 101 140 118 89 q 83 257 83 190 q 120 408 83 347 q 215 494 157 468 q 145 574 171 522 q 119 703 119 626 q 137 822 119 769 q 185 910 154 874 q 256 967 215 947 q 343 986 297 986 l 1060 986 m 918 585 q 985 586 954 585 q 1038 597 1015 588 q 1074 627 1061 606 q 1088 689 1088 649 q 1074 750 1088 729 q 1038 780 1061 771 q 985 790 1015 789 q 918 792 954 792 l 497 792 q 431 790 463 792 q 377 780 400 789 q 341 750 354 771 q 328 689 328 729 q 341 627 328 649 q 377 597 354 606 q 431 586 400 588 q 497 585 463 585 l 918 585 m 954 181 q 1020 184 989 181 q 1074 199 1051 188 q 1110 230 1097 210 q 1124 285 1124 250 q 1110 340 1124 319 q 1074 372 1097 361 q 1020 387 1051 383 q 954 390 989 390 l 461 390 q 395 387 426 390 q 341 372 364 383 q 305 340 318 361 q 292 285 292 319 q 305 230 292 250 q 341 199 318 210 q 395 184 364 188 q 461 181 426 181 l 954 181 z "},"9":{"ha":1331,"x_min":83,"x_max":1247,"o":"m 307 382 q 220 401 261 382 q 149 457 179 419 q 101 551 118 494 q 83 685 83 608 q 101 818 83 761 q 149 913 118 875 q 220 968 179 950 q 307 986 261 986 l 1022 986 q 1109 968 1068 986 q 1181 913 1150 950 q 1229 818 1211 875 q 1247 685 1247 761 l 1247 249 q 1229 139 1247 188 q 1181 56 1211 90 q 1109 4 1150 22 q 1022 -14 1068 -14 l 325 -14 q 238 4 279 -14 q 167 56 197 22 q 119 139 136 90 q 101 249 101 188 l 101 263 l 310 263 l 310 249 q 321 207 310 221 q 353 187 332 193 q 407 181 375 181 q 479 181 439 181 l 869 181 q 941 181 910 181 q 994 187 972 181 q 1028 207 1017 193 q 1039 249 1039 221 l 1039 410 q 883 382 963 382 l 307 382 m 463 792 q 397 792 428 792 q 342 783 365 792 q 305 751 318 774 q 292 685 292 729 q 305 617 292 640 q 342 585 318 594 q 397 576 365 576 q 463 576 428 576 l 869 576 q 935 576 904 576 q 990 585 967 576 q 1026 617 1013 594 q 1039 685 1039 640 q 1026 751 1039 729 q 990 783 1013 774 q 935 792 967 792 q 869 792 904 792 l 463 792 z "},"\u0000":{"ha":0,"x_min":0,"x_max":0,"o":""},"\r":{"ha":347,"x_min":0,"x_max":0,"o":""}," ":{"ha":347,"x_min":0,"x_max":0,"o":""},"A":{"ha":1279,"x_min":1,"x_max":1278,"o":"m 757 972 l 1278 0 l 1042 0 l 949 179 l 331 179 l 238 0 l 1 0 l 521 972 l 757 972 m 432 374 l 847 374 l 639 772 l 432 374 z "},"B":{"ha":1289,"x_min":83,"x_max":1247,"o":"m 940 972 q 1039 957 993 972 q 1119 911 1085 942 q 1173 835 1153 881 q 1193 731 1193 790 q 1163 606 1193 657 q 1085 526 1133 556 q 1202 431 1157 499 q 1247 271 1247 363 q 1228 162 1247 211 q 1174 76 1208 113 q 1093 20 1139 40 q 994 0 1047 0 l 83 0 l 83 972 l 940 972 m 776 613 q 851 612 814 613 q 919 617 889 611 q 967 642 949 624 q 985 696 985 660 q 967 749 985 732 q 919 773 949 767 q 851 778 889 779 q 776 778 814 778 l 292 778 l 292 613 l 776 613 m 832 194 q 913 197 875 194 q 978 209 950 199 q 1023 242 1007 219 q 1039 307 1039 265 q 1023 372 1039 349 q 978 405 1007 394 q 913 417 950 415 q 832 419 875 419 l 292 419 l 292 194 l 832 194 z "},"C":{"ha":1453,"x_min":83,"x_max":1369,"o":"m 919 181 q 1027 181 982 181 q 1102 192 1072 182 q 1147 223 1132 201 q 1161 288 1161 244 l 1369 288 q 1346 170 1369 225 q 1281 74 1322 115 q 1185 10 1240 33 q 1068 -14 1131 -14 l 386 -14 q 269 10 324 -14 q 172 74 214 33 q 107 170 131 115 q 83 288 83 225 l 83 686 q 107 803 83 749 q 172 898 131 857 q 269 963 214 939 q 386 986 324 986 l 1068 986 q 1185 963 1131 986 q 1281 898 1240 939 q 1346 803 1322 857 q 1369 686 1369 749 l 1161 686 q 1147 751 1161 729 q 1102 781 1132 772 q 1027 791 1072 790 q 919 792 982 792 l 422 792 q 342 772 369 792 q 304 717 315 751 q 292 635 293 682 q 292 535 292 588 l 292 464 q 292 360 292 411 q 304 269 293 308 q 342 205 315 229 q 422 181 369 181 l 919 181 z "},"D":{"ha":1368,"x_min":83,"x_max":1285,"o":"m 83 972 l 983 972 q 1101 949 1046 972 q 1197 884 1156 925 q 1261 789 1238 843 q 1285 672 1285 735 l 1285 301 q 1261 184 1285 239 q 1197 88 1238 129 q 1101 24 1156 47 q 983 0 1046 0 l 83 0 l 83 972 m 946 194 q 1026 215 999 194 q 1064 269 1053 235 q 1076 351 1075 304 q 1076 450 1076 397 l 1076 521 q 1076 621 1076 574 q 1064 703 1075 668 q 1026 758 1053 738 q 946 778 999 778 l 292 778 l 292 194 l 946 194 z "},"E":{"ha":1254,"x_min":83,"x_max":1213,"o":"m 83 0 l 83 972 l 1213 972 l 1213 778 l 292 778 l 292 613 l 1131 613 l 1131 418 l 292 418 l 292 194 l 1213 194 l 1213 0 l 83 0 z "},"F":{"ha":1256,"x_min":83,"x_max":1214,"o":"m 292 0 l 83 0 l 83 972 l 1214 972 l 1214 778 l 292 778 l 292 601 l 1119 601 l 1119 407 l 292 407 l 292 0 z "},"G":{"ha":1444,"x_min":83,"x_max":1360,"o":"m 1360 578 l 1360 288 q 1336 170 1360 225 q 1272 74 1313 115 q 1176 10 1231 33 q 1060 -14 1122 -14 l 385 -14 q 267 10 322 -14 q 172 74 213 33 q 107 170 131 115 q 83 288 83 225 l 83 686 q 107 803 83 749 q 172 898 131 857 q 267 963 213 939 q 385 986 322 986 l 1060 986 q 1176 963 1122 986 q 1272 898 1231 939 q 1336 803 1313 857 q 1360 686 1360 749 l 1146 686 q 1111 763 1138 735 q 1021 792 1085 792 l 422 792 q 342 772 369 792 q 304 717 315 751 q 292 635 293 682 q 292 535 292 588 l 292 436 q 292 337 292 383 q 304 256 293 290 q 342 201 315 221 q 422 181 369 181 l 1021 181 q 1093 196 1067 181 q 1132 238 1119 211 q 1148 303 1144 265 q 1151 383 1151 340 l 546 383 l 546 578 l 1360 578 z "},"H":{"ha":1296,"x_min":83,"x_max":1213,"o":"m 292 0 l 83 0 l 83 972 l 292 972 l 292 583 l 1004 583 l 1004 972 l 1213 972 l 1213 0 l 1004 0 l 1004 389 l 292 389 l 292 0 z "},"I":{"ha":783,"x_min":42,"x_max":742,"o":"m 742 194 l 742 0 l 42 0 l 42 194 l 288 194 l 288 778 l 42 778 l 42 972 l 742 972 l 742 778 l 496 778 l 496 194 l 742 194 z "},"J":{"ha":1367,"x_min":83,"x_max":1283,"o":"m 585 972 l 1283 972 l 1283 288 q 1260 170 1283 225 q 1195 74 1236 115 q 1099 10 1154 33 q 982 -14 1044 -14 l 385 -14 q 267 10 322 -14 q 172 74 213 33 q 107 170 131 115 q 83 288 83 225 l 83 486 l 292 486 l 292 296 q 312 219 292 244 q 367 185 332 194 q 448 178 401 176 q 547 179 494 179 l 819 179 q 919 178 872 179 q 1000 185 965 176 q 1055 219 1035 194 q 1075 296 1075 244 l 1075 778 l 585 778 l 585 972 z "},"K":{"ha":1299,"x_min":83,"x_max":1285,"o":"m 83 974 l 292 974 l 292 583 l 364 583 l 942 974 l 1285 974 l 574 486 l 1285 0 l 942 0 l 363 390 l 292 390 l 292 0 l 83 0 l 83 974 z "},"L":{"ha":1213,"x_min":83,"x_max":1171,"o":"m 83 974 l 292 974 l 292 194 l 1171 194 l 1171 0 l 83 0 l 83 974 z "},"M":{"ha":1428,"x_min":83,"x_max":1344,"o":"m 83 972 l 297 972 l 714 199 l 1129 972 l 1344 972 l 1344 0 l 1136 0 l 1136 585 l 821 0 l 607 0 l 292 585 l 292 0 l 83 0 l 83 972 z "},"N":{"ha":1296,"x_min":83,"x_max":1213,"o":"m 83 974 l 308 974 l 1004 267 l 1004 974 l 1213 974 l 1213 0 l 989 0 l 292 710 l 292 0 l 83 0 l 83 974 z "},"O":{"ha":1451,"x_min":83,"x_max":1368,"o":"m 83 686 q 107 803 83 749 q 172 898 131 857 q 267 963 213 939 q 385 986 322 986 l 1068 986 q 1185 963 1131 986 q 1280 898 1239 939 q 1344 803 1321 857 q 1368 686 1368 749 l 1368 288 q 1344 170 1368 225 q 1280 74 1321 115 q 1185 10 1239 33 q 1068 -14 1131 -14 l 385 -14 q 267 10 322 -14 q 172 74 213 33 q 107 170 131 115 q 83 288 83 225 l 83 686 m 1029 181 q 1109 199 1082 181 q 1147 249 1136 217 q 1159 325 1158 281 q 1160 422 1160 369 l 1160 549 q 1159 647 1160 601 q 1147 724 1158 692 q 1109 774 1136 756 q 1029 792 1082 792 l 422 792 q 342 774 369 792 q 304 724 315 756 q 292 647 293 692 q 292 549 292 601 l 292 422 q 292 325 292 369 q 304 249 293 281 q 342 199 315 217 q 422 181 369 181 l 1029 181 z "},"P":{"ha":1290,"x_min":83,"x_max":1249,"o":"m 996 972 q 1094 952 1049 972 q 1174 896 1140 932 q 1228 810 1208 860 q 1249 701 1249 761 q 1228 592 1249 642 q 1174 506 1208 542 q 1094 449 1140 469 q 996 429 1049 429 l 292 429 l 292 0 l 83 0 l 83 972 l 996 972 m 874 624 q 948 624 917 624 q 1000 631 979 625 q 1031 654 1021 638 q 1040 701 1040 671 q 1031 749 1040 733 q 1000 771 1021 764 q 948 778 979 778 q 874 778 917 778 l 292 778 l 292 624 l 874 624 z "},"Q":{"ha":1454,"x_min":83,"x_max":1413,"o":"m 83 686 q 107 803 83 749 q 172 898 131 857 q 267 963 213 939 q 385 986 322 986 l 1068 986 q 1185 963 1131 986 q 1280 898 1239 939 q 1344 803 1321 857 q 1368 686 1368 749 l 1368 288 q 1350 185 1368 233 q 1300 96 1332 136 l 1413 0 l 1158 0 q 1114 -10 1136 -7 q 1068 -14 1092 -14 l 385 -14 q 267 10 322 -14 q 172 74 213 33 q 107 170 131 115 q 83 288 83 225 l 83 686 m 844 486 l 1139 235 q 1158 322 1157 271 q 1160 436 1160 374 l 1160 535 q 1159 635 1160 588 q 1147 717 1158 682 q 1109 772 1136 751 q 1029 792 1082 792 l 422 792 q 342 772 369 792 q 304 717 315 751 q 292 635 293 682 q 292 535 292 588 l 292 436 q 292 337 292 383 q 304 256 293 290 q 342 201 315 221 q 422 181 369 181 l 853 181 l 496 486 l 844 486 z "},"R":{"ha":1325,"x_min":83,"x_max":1283,"o":"m 996 972 q 1094 952 1049 972 q 1174 896 1140 932 q 1228 810 1208 860 q 1249 701 1249 761 q 1217 567 1249 626 q 1133 472 1186 507 q 1212 410 1182 453 q 1242 314 1242 367 l 1250 99 q 1283 0 1250 44 l 1061 0 q 1042 89 1042 43 l 1032 310 q 997 394 1032 360 q 913 429 963 429 l 292 429 l 292 0 l 83 0 l 83 972 l 996 972 m 874 624 q 948 624 917 624 q 1000 631 979 625 q 1031 654 1021 638 q 1040 701 1040 671 q 1031 749 1040 733 q 1000 771 1021 764 q 948 778 979 778 q 874 778 917 778 l 292 778 l 292 624 l 874 624 z "},"S":{"ha":1283,"x_min":69,"x_max":1200,"o":"m 293 390 q 206 409 247 390 q 135 465 165 428 q 87 557 104 501 q 69 688 69 613 q 87 818 69 763 q 135 911 104 874 q 206 967 165 949 q 293 986 247 986 l 940 986 q 1027 968 986 986 q 1099 916 1068 950 q 1147 833 1129 882 q 1164 724 1164 785 l 956 724 q 942 767 956 753 q 906 787 929 782 q 852 792 883 792 q 786 792 821 792 l 433 792 q 370 790 399 792 q 321 779 342 789 q 289 749 300 769 q 278 688 278 728 q 289 627 278 649 q 321 596 300 606 q 370 585 342 586 q 433 583 399 583 l 975 583 q 1063 565 1022 583 q 1135 508 1104 546 q 1183 415 1165 471 q 1200 286 1200 360 q 1183 155 1200 211 q 1135 61 1165 99 q 1063 5 1104 24 q 975 -14 1022 -14 l 293 -14 q 206 4 247 -14 q 135 56 165 22 q 87 140 104 90 q 69 250 69 189 l 278 250 q 291 206 278 221 q 327 186 304 192 q 381 181 350 181 q 447 181 413 181 l 836 181 q 899 182 871 181 q 949 193 928 183 q 981 224 969 203 q 992 286 992 246 q 981 347 992 325 q 949 378 969 368 q 899 389 928 388 q 836 390 871 390 l 293 390 z "},"T":{"ha":1207,"x_min":42,"x_max":1165,"o":"m 42 972 l 1165 972 l 1165 778 l 708 778 l 708 0 l 500 0 l 499 778 l 42 778 l 42 972 z "},"U":{"ha":1294,"x_min":83,"x_max":1211,"o":"m 1003 972 l 1211 972 l 1211 288 q 1188 170 1211 225 q 1123 74 1164 115 q 1027 10 1082 33 q 910 -14 972 -14 l 385 -14 q 267 10 322 -14 q 172 74 213 33 q 107 170 131 115 q 83 288 83 225 l 83 972 l 292 972 l 292 436 q 292 337 292 383 q 304 256 293 290 q 342 201 315 221 q 422 181 369 181 l 872 181 q 952 201 925 181 q 990 256 979 221 q 1002 337 1001 290 q 1003 436 1003 383 l 1003 972 z "},"V":{"ha":1300,"x_min":14,"x_max":1286,"o":"m 535 0 l 14 972 l 246 972 l 650 196 l 1054 972 l 1286 972 l 767 0 l 535 0 z "},"W":{"ha":1879,"x_min":14,"x_max":1865,"o":"m 824 972 l 1056 972 l 1344 254 l 1633 972 l 1865 972 l 1461 0 l 1229 0 l 940 694 l 650 0 l 418 0 l 14 972 l 246 972 l 535 254 l 824 972 z "},"X":{"ha":1278,"x_min":14,"x_max":1264,"o":"m 1264 972 l 783 486 l 1264 0 l 976 0 l 639 340 l 301 0 l 14 0 l 496 486 l 14 972 l 301 972 l 639 632 l 976 972 l 1264 972 z "},"Y":{"ha":1268,"x_min":14,"x_max":1254,"o":"m 739 0 l 531 0 l 531 453 l 14 972 l 290 972 l 633 626 l 976 972 l 1254 972 l 739 453 l 739 0 z "},"Z":{"ha":1293,"x_min":83,"x_max":1208,"o":"m 83 194 l 840 778 l 83 778 l 83 972 l 1174 972 l 1174 778 l 414 194 l 1208 194 l 1208 0 l 83 0 l 83 194 z "},"a":{"ha":1244,"x_min":83,"x_max":1203,"o":"m 1203 194 l 1203 0 l 939 0 q 821 50 844 0 q 765 3 801 19 q 658 -14 728 -14 l 313 -14 q 214 4 257 -14 q 142 53 171 22 q 98 125 113 83 q 83 214 83 167 q 142 369 83 308 q 313 429 200 429 l 814 429 l 814 444 q 801 508 814 492 q 747 525 788 525 l 394 525 q 345 517 358 525 q 329 472 332 508 l 121 472 q 148 589 121 542 q 219 665 175 636 q 317 707 263 694 q 425 719 371 719 l 717 719 q 880 696 819 719 q 972 632 940 672 q 1013 537 1004 592 q 1022 419 1022 482 l 1022 236 q 1035 206 1022 218 q 1065 194 1047 194 l 1203 194 m 679 181 q 733 181 708 181 q 776 183 758 181 q 804 193 794 186 q 814 215 814 200 l 814 249 l 389 249 q 319 245 346 249 q 292 214 292 242 q 319 184 292 188 q 389 181 346 181 l 679 181 z "},"b":{"ha":1146,"x_min":83,"x_max":1104,"o":"m 292 671 q 453 718 365 718 l 804 718 q 921 694 867 718 q 1016 630 975 671 q 1081 535 1057 589 q 1104 418 1104 481 l 1104 288 q 1081 170 1104 225 q 1016 74 1057 115 q 921 10 975 33 q 804 -14 867 -14 l 453 -14 q 292 33 365 -14 l 292 0 l 83 0 l 83 972 l 292 972 l 292 671 m 292 296 q 308 235 292 258 q 353 201 324 213 q 424 185 382 189 q 519 181 467 181 l 667 181 q 762 185 719 181 q 834 201 804 189 q 880 235 864 213 q 896 296 896 258 l 896 408 q 880 469 896 446 q 834 503 864 492 q 762 519 804 515 q 667 524 719 524 l 519 524 q 424 519 467 524 q 353 503 382 515 q 308 469 324 492 q 292 408 292 446 l 292 296 z "},"c":{"ha":1188,"x_min":83,"x_max":1104,"o":"m 1104 274 q 1077 161 1101 214 q 1012 69 1053 108 q 917 8 971 31 q 803 -14 864 -14 l 385 -14 q 267 10 322 -14 q 172 74 213 33 q 107 170 131 115 q 83 288 83 225 l 83 418 q 107 535 83 481 q 172 630 131 589 q 267 694 213 671 q 385 718 322 718 l 803 718 q 917 696 864 718 q 1012 635 971 674 q 1077 543 1053 596 q 1104 431 1101 490 l 894 431 q 876 488 892 468 q 835 515 861 507 q 770 524 808 524 q 682 524 732 524 l 506 524 q 413 523 453 524 q 345 513 372 522 q 305 479 318 503 q 292 408 292 456 l 292 296 q 305 225 292 249 q 345 192 318 201 q 413 181 372 182 q 506 181 453 181 l 682 181 q 770 181 732 181 q 835 189 808 181 q 876 217 861 197 q 894 274 892 236 l 1104 274 z "},"d":{"ha":1188,"x_min":83,"x_max":1104,"o":"m 896 0 l 896 33 q 735 -14 822 -14 l 383 -14 q 267 10 321 -14 q 172 74 213 33 q 107 170 131 115 q 83 288 83 225 l 83 418 q 107 535 83 481 q 172 630 131 589 q 267 694 213 671 q 383 718 321 718 l 735 718 q 896 671 822 718 l 896 972 l 1104 972 l 1104 0 l 896 0 m 896 408 q 880 469 896 446 q 835 503 864 492 q 763 519 806 515 q 668 524 721 524 l 521 524 q 426 519 468 524 q 353 503 383 515 q 308 469 324 492 q 292 408 292 446 l 292 296 q 308 235 292 258 q 353 201 324 213 q 426 185 383 189 q 521 181 468 181 l 668 181 q 763 185 721 181 q 835 201 806 189 q 880 235 864 213 q 896 296 896 258 l 896 408 z "},"e":{"ha":1188,"x_min":83,"x_max":1104,"o":"m 1099 231 q 1062 134 1089 179 q 996 56 1035 89 q 908 5 957 24 q 803 -14 858 -14 l 385 -14 q 267 10 322 -14 q 172 74 213 33 q 107 170 131 115 q 83 288 83 225 l 83 418 q 107 535 83 481 q 172 630 131 589 q 267 694 213 671 q 385 718 322 718 l 803 718 q 917 696 864 718 q 1010 635 969 674 q 1076 546 1051 597 q 1104 435 1100 494 l 1104 418 l 1104 297 l 292 297 l 292 296 q 305 225 292 249 q 345 192 318 201 q 413 181 372 182 q 506 181 453 181 l 682 181 q 757 181 724 181 q 815 185 790 181 q 858 199 840 189 q 885 231 875 210 l 1099 231 m 889 463 q 864 501 881 488 q 822 519 847 514 q 761 524 796 524 q 682 524 726 524 l 506 524 q 427 524 463 524 q 366 519 392 524 q 324 501 340 514 q 299 463 307 488 l 889 463 z "},"f":{"ha":946,"x_min":42,"x_max":904,"o":"m 218 704 q 246 812 221 763 q 312 897 271 861 q 406 952 353 932 q 519 972 460 972 l 904 972 l 904 778 l 557 778 q 472 759 499 778 q 435 704 444 740 l 886 704 l 886 510 l 426 510 l 426 194 l 603 194 l 603 0 l 42 0 l 42 194 l 218 194 l 218 510 l 42 510 l 42 704 l 218 704 z "},"g":{"ha":1193,"x_min":67,"x_max":1125,"o":"m 790 718 q 883 701 840 718 q 957 647 925 683 q 1038 692 992 681 q 1125 704 1083 704 l 1125 510 q 1045 506 1076 510 q 1014 482 1014 503 q 1001 382 1014 428 q 960 301 988 336 q 890 247 932 267 q 790 228 847 228 l 399 228 q 389 206 389 224 q 401 182 389 185 l 865 182 q 952 169 911 182 q 1024 128 993 156 q 1072 56 1054 100 q 1089 -50 1089 11 q 1072 -155 1089 -111 q 1024 -227 1054 -199 q 952 -269 993 -256 q 865 -282 911 -282 l 292 -282 q 205 -269 246 -282 q 133 -227 164 -256 q 85 -155 103 -199 q 67 -50 67 -111 q 100 88 67 36 q 188 163 133 139 q 181 206 181 183 q 196 267 181 240 q 128 347 153 296 q 103 474 103 399 q 121 581 103 535 q 169 657 139 626 q 241 703 200 688 q 328 718 282 718 l 790 718 m 732 422 q 788 435 771 422 q 804 474 804 449 q 788 511 804 499 q 732 524 771 524 l 383 524 q 328 511 344 524 q 311 474 311 499 q 328 435 311 449 q 383 422 344 422 l 732 422 m 836 -87 q 868 -76 856 -87 q 881 -50 881 -65 q 868 -24 881 -35 q 836 -12 856 -12 l 307 -12 q 274 -24 288 -12 q 261 -50 261 -35 q 274 -76 261 -65 q 307 -87 288 -87 l 836 -87 z "},"h":{"ha":1115,"x_min":83,"x_max":1032,"o":"m 731 718 q 848 694 793 718 q 944 630 903 671 q 1008 535 985 589 q 1032 418 1032 481 l 1032 0 l 824 0 l 824 403 q 803 470 824 446 q 749 506 783 494 q 667 521 714 518 q 568 524 621 524 l 547 524 q 448 521 494 524 q 367 506 401 518 q 312 470 332 494 q 292 403 292 446 l 292 0 l 83 0 l 83 972 l 292 972 l 292 671 q 369 706 328 693 q 454 718 410 718 l 731 718 z "},"i":{"ha":644,"x_min":42,"x_max":603,"o":"m 450 918 q 440 871 450 893 q 414 832 431 849 q 376 806 397 815 q 329 796 354 796 q 242 832 276 796 q 208 918 208 868 q 242 1007 208 971 q 329 1043 276 1043 q 376 1033 354 1043 q 414 1007 397 1024 q 440 967 431 990 q 450 918 450 944 m 426 194 l 603 194 l 603 0 l 42 0 l 42 194 l 218 194 l 218 510 l 42 510 l 42 704 l 426 704 l 426 194 z "},"j":{"ha":701,"x_min":14,"x_max":643,"o":"m 643 918 q 633 871 643 893 q 607 832 624 849 q 569 806 590 815 q 522 796 547 796 q 435 832 469 796 q 401 918 401 868 q 435 1007 401 971 q 522 1043 469 1043 q 569 1033 547 1043 q 607 1007 590 1024 q 633 967 624 990 q 643 918 643 944 m 410 510 l 186 510 l 186 704 l 618 704 l 618 19 q 608 -98 618 -43 q 555 -194 597 -153 q 428 -258 513 -235 q 196 -282 344 -282 l 14 -282 l 14 -87 l 192 -87 q 284 -85 244 -87 q 351 -73 324 -83 q 394 -40 379 -62 q 410 24 408 -18 l 410 510 z "},"k":{"ha":1096,"x_min":83,"x_max":1082,"o":"m 83 972 l 292 972 l 292 449 l 360 449 l 739 704 l 1082 704 l 546 353 l 1082 0 l 739 0 l 361 256 l 292 256 l 292 0 l 83 0 l 83 972 z "},"l":{"ha":644,"x_min":42,"x_max":603,"o":"m 426 972 l 426 194 l 603 194 l 603 0 l 42 0 l 42 194 l 218 194 l 218 778 l 42 778 l 42 972 l 426 972 z "},"m":{"ha":1715,"x_min":85,"x_max":1632,"o":"m 293 704 l 293 671 q 369 706 328 693 q 456 718 410 718 l 661 718 q 792 689 732 718 q 893 610 851 660 q 994 689 933 660 q 1125 718 1054 718 l 1331 718 q 1448 694 1393 718 q 1544 630 1503 671 q 1608 535 1585 589 q 1632 418 1632 481 l 1632 0 l 1424 0 l 1424 403 q 1405 470 1424 446 q 1358 506 1386 494 q 1297 521 1329 518 q 1238 524 1265 524 l 1149 524 q 1090 521 1122 524 q 1028 506 1057 518 q 981 470 1000 494 q 963 403 963 446 l 963 0 l 754 0 l 754 403 q 735 470 754 446 q 688 506 717 494 q 628 521 660 518 q 568 524 596 524 l 479 524 q 420 521 453 524 q 359 506 388 518 q 312 470 331 494 q 293 403 293 446 l 293 0 l 85 0 l 85 704 l 293 704 z "},"n":{"ha":1115,"x_min":83,"x_max":1032,"o":"m 292 0 l 83 0 l 83 704 l 292 704 l 292 671 q 369 706 328 693 q 454 718 410 718 l 731 718 q 848 694 793 718 q 944 630 903 671 q 1008 535 985 589 q 1032 418 1032 481 l 1032 0 l 824 0 l 824 403 q 803 470 824 446 q 749 506 783 494 q 667 521 714 518 q 568 524 621 524 l 547 524 q 448 521 494 524 q 367 506 401 518 q 312 470 332 494 q 292 403 292 446 l 292 0 z "},"o":{"ha":1188,"x_min":83,"x_max":1104,"o":"m 803 718 q 920 694 865 718 q 1016 630 975 671 q 1081 535 1057 589 q 1104 418 1104 481 l 1104 288 q 1081 170 1104 225 q 1016 74 1057 115 q 920 10 975 33 q 803 -14 865 -14 l 385 -14 q 267 10 322 -14 q 172 74 213 33 q 107 170 131 115 q 83 288 83 225 l 83 418 q 107 535 83 481 q 172 630 131 589 q 267 694 213 671 q 385 718 322 718 l 803 718 m 896 408 q 883 479 896 456 q 842 513 869 503 q 775 523 815 522 q 682 524 735 524 l 506 524 q 413 523 453 524 q 345 513 372 522 q 305 479 318 503 q 292 408 292 456 l 292 296 q 305 225 292 249 q 345 192 318 201 q 413 181 372 182 q 506 181 453 181 l 682 181 q 775 181 735 181 q 842 192 815 182 q 883 225 869 201 q 896 296 896 249 l 896 408 z "},"p":{"ha":1188,"x_min":83,"x_max":1104,"o":"m 292 704 l 292 671 q 453 718 365 718 l 804 718 q 921 694 867 718 q 1016 630 975 671 q 1081 534 1057 589 q 1104 417 1104 479 l 1104 286 q 1081 169 1104 224 q 1016 74 1057 115 q 921 10 975 33 q 804 -14 867 -14 l 453 -14 q 292 33 365 -14 l 292 -268 l 83 -268 l 83 704 l 292 704 m 519 524 q 424 519 467 524 q 353 503 382 515 q 308 469 324 492 q 292 408 292 446 l 292 296 q 308 235 292 258 q 353 201 324 213 q 424 185 382 189 q 519 181 467 181 l 667 181 q 762 185 719 181 q 834 201 804 189 q 880 235 864 213 q 896 296 896 258 l 896 408 q 880 469 896 446 q 834 503 864 492 q 762 519 804 515 q 667 524 719 524 l 519 524 z "},"q":{"ha":1188,"x_min":83,"x_max":1104,"o":"m 1104 -268 l 896 -268 l 896 33 q 735 -14 822 -14 l 383 -14 q 267 10 321 -14 q 172 74 213 33 q 107 169 131 115 q 83 286 83 224 l 83 417 q 107 534 83 479 q 172 630 131 589 q 267 694 213 671 q 383 718 321 718 l 735 718 q 896 671 822 718 l 896 704 l 1104 704 l 1104 -268 m 521 524 q 426 519 468 524 q 353 503 383 515 q 308 469 324 492 q 292 408 292 446 l 292 296 q 308 235 292 258 q 353 201 324 213 q 426 185 383 189 q 521 181 468 181 l 668 181 q 763 185 721 181 q 835 201 806 189 q 880 235 864 213 q 896 296 896 258 l 896 408 q 880 469 896 446 q 835 503 864 492 q 763 519 806 515 q 668 524 721 524 l 521 524 z "},"r":{"ha":981,"x_min":85,"x_max":939,"o":"m 646 194 l 646 0 l 85 0 l 85 194 l 261 194 l 261 510 l 85 510 l 85 704 l 469 704 l 469 578 q 574 670 510 636 q 715 704 639 704 l 939 704 l 939 510 l 725 510 q 626 488 672 510 q 544 428 579 465 q 490 341 510 390 q 469 239 469 292 l 469 194 l 646 194 z "},"s":{"ha":1097,"x_min":85,"x_max":1028,"o":"m 724 -14 l 388 -14 q 235 10 293 -14 q 144 69 176 33 q 99 149 111 106 q 85 231 88 192 l 294 231 q 302 201 294 211 q 323 186 310 190 q 353 181 336 182 q 388 181 369 181 l 729 181 q 766 181 750 181 q 792 184 782 181 q 806 196 801 188 q 811 222 811 204 q 806 249 811 240 q 792 260 801 257 q 766 264 782 264 q 729 264 750 264 l 379 264 q 244 275 299 264 q 155 312 189 286 q 106 380 121 338 q 90 485 90 422 q 106 592 90 547 q 155 665 121 636 q 244 706 189 693 q 379 719 299 719 l 738 719 q 876 696 824 719 q 956 637 928 672 q 994 558 985 601 q 1004 476 1004 515 l 796 476 q 792 506 796 496 q 777 521 788 517 q 749 525 767 525 q 704 525 732 525 l 388 525 q 326 519 344 525 q 307 485 307 513 q 326 451 307 457 q 388 444 344 444 l 724 444 q 842 438 786 444 q 938 407 897 431 q 1003 340 979 383 q 1028 222 1028 296 q 1003 103 1028 149 q 938 31 979 57 q 842 -5 897 4 q 724 -14 786 -14 z "},"t":{"ha":1107,"x_min":42,"x_max":1024,"o":"m 218 704 l 218 885 l 426 885 l 426 704 l 996 704 l 996 510 l 426 510 l 426 296 q 450 203 426 226 q 533 181 474 181 l 710 181 q 759 181 739 181 q 792 188 779 181 q 810 212 804 194 q 815 264 815 229 l 1024 264 q 972 54 1024 122 q 838 -14 919 -14 l 406 -14 q 331 2 365 -14 q 271 46 296 18 q 232 113 246 74 q 218 197 218 151 l 218 510 l 42 510 l 42 704 l 218 704 z "},"u":{"ha":1117,"x_min":85,"x_max":1033,"o":"m 825 704 l 1033 704 l 1033 0 l 825 0 l 825 33 q 748 -1 789 11 q 663 -14 707 -14 l 386 -14 q 269 10 324 -14 q 173 74 214 33 q 108 169 132 115 q 85 286 85 224 l 85 704 l 293 704 l 293 301 q 313 234 293 258 q 368 198 333 210 q 449 183 403 186 q 549 181 496 181 l 569 181 q 669 183 622 181 q 750 198 715 186 q 805 234 785 210 q 825 301 825 258 l 825 704 z "},"v":{"ha":1049,"x_min":14,"x_max":1035,"o":"m 254 704 l 525 199 l 794 704 l 1035 704 l 644 0 l 404 0 l 14 704 l 254 704 z "},"w":{"ha":1582,"x_min":14,"x_max":1568,"o":"m 792 447 l 582 0 l 342 0 l 14 704 l 254 704 l 467 247 l 671 704 l 911 704 l 1115 247 l 1328 704 l 1568 704 l 1239 0 l 1000 0 l 792 447 z "},"x":{"ha":1160,"x_min":14,"x_max":1146,"o":"m 581 217 l 328 0 l 14 0 l 424 353 l 14 704 l 328 704 l 581 488 l 832 704 l 1146 704 l 738 353 l 1146 0 l 832 0 l 581 217 z "},"y":{"ha":1058,"x_min":14,"x_max":1044,"o":"m 417 0 l 14 704 l 263 704 l 539 221 l 807 704 l 1044 704 l 506 -268 l 268 -268 l 417 0 z "},"z":{"ha":1046,"x_min":83,"x_max":963,"o":"m 578 510 l 83 510 l 83 704 l 944 704 l 944 510 l 449 194 l 963 194 l 963 0 l 83 0 l 83 194 l 578 510 z "},".":{"ha":410,"x_min":83,"x_max":326,"o":"m 326 97 q 317 50 326 72 q 290 11 307 28 q 252 -15 274 -6 q 206 -25 231 -25 q 118 11 153 -25 q 83 97 83 47 q 118 185 83 149 q 206 221 153 221 q 252 211 231 221 q 290 185 274 201 q 317 145 307 168 q 326 97 326 122 z "},",":{"ha":411,"x_min":85,"x_max":328,"o":"m 328 86 q 314 13 328 47 q 275 -49 300 -22 q 216 -94 250 -76 q 143 -115 182 -111 l 143 -76 q 192 -59 171 -74 q 226 -24 214 -44 q 216 -24 221 -24 q 206 -25 211 -25 q 159 -15 181 -25 q 121 11 138 -6 q 94 50 104 28 q 85 97 85 72 q 94 146 85 124 q 121 185 104 168 q 159 211 138 201 q 206 221 181 221 q 293 185 258 221 q 328 97 328 150 l 328 86 z "}}}
